<?xml version="1.0" standalone="no"?>
<!DOCTYPE svg PUBLIC "-//W3C//DTD SVG 20010904//EN"
 "http://www.w3.org/TR/2001/REC-SVG-20010904/DTD/svg10.dtd">
<svg version="1.0" xmlns="http://www.w3.org/2000/svg"
 width="512.000000pt" height="512.000000pt" viewBox="0 0 512.000000 512.000000"
 preserveAspectRatio="xMidYMid meet">

<g transform="translate(0.000000,512.000000) scale(0.100000,-0.100000)"
fill="#F1F3F9" stroke="none">
<path d="M814 5066 c-321 -73 -544 -349 -544 -671 0 -288 200 -561 473 -647
268 -84 556 1 735 215 54 65 127 214 142 291 60 300 -84 607 -349 745 -42 21
-101 46 -131 56 -76 22 -249 28 -326 11z"/>
<path d="M3905 5064 c-146 -31 -302 -130 -391 -247 -165 -218 -189 -491 -67
-737 50 -100 178 -230 278 -282 107 -56 210 -80 330 -80 120 1 191 18 305 74
69 33 101 57 170 127 138 140 200 286 200 476 0 437 -397 759 -825 669z"/>
<path d="M2445 2114 c-921 -42 -1729 -487 -2204 -1214 -100 -153 -215 -384
-232 -468 -53 -255 214 -470 454 -364 86 38 131 91 206 246 38 78 96 182 128
231 328 498 877 822 1516 895 204 24 495 11 697 -30 416 -85 786 -284 1077
-581 162 -165 259 -303 366 -519 88 -177 151 -235 280 -259 146 -27 291 50
356 188 21 46 26 70 26 136 -1 74 -4 88 -49 185 -277 602 -786 1084 -1416
1342 -369 152 -813 229 -1205 212z"/>
</g>
</svg>
